HIERARCHY
ROOT Hips
{
	OFFSET 0.000000 0.000000 0.000000
	CHANNELS 6 Xposition Yposition Zposition Yrotation Xrotation Zrotation
	JOINT Chest
	{
		OFFSET 0.000000 -0.009281 11.569106
		CHANNELS 3 Yrotation Xrotation Zrotation
		JOINT Chest2
		{
			OFFSET -0.000000 0.016865 9.269641
			CHANNELS 3 Yrotation Xrotation Zrotation
			JOINT Chest3
			{
				OFFSET -0.000000 0.000001 8.374491
				CHANNELS 3 Yrotation Xrotation Zrotation
				JOINT Chest4
				{
					OFFSET -0.000000 0.000001 8.374493
					CHANNELS 3 Yrotation Xrotation Zrotation
					JOINT Neck
					{
						OFFSET -0.000000 0.000002 12.152554
						CHANNELS 3 Yrotation Xrotation Zrotation
						JOINT Head
						{
							OFFSET -0.000000 0.040101 7.802319
							CHANNELS 3 Yrotation Xrotation Zrotation
							End Site
							{
								OFFSET -0.000000 0.020947 14.853096
							}
						}
					}
					JOINT RightCollar
					{
						OFFSET 2.894404 0.000001 6.791374
						CHANNELS 3 Yrotation Xrotation Zrotation
						JOINT RightShoulder
						{
							OFFSET 13.574684 0.000001 0.000000
							CHANNELS 3 Yrotation Xrotation Zrotation
							JOINT RightElbow
							{
								OFFSET 23.923903 0.000002 0.000000
								CHANNELS 3 Yrotation Xrotation Zrotation
								JOINT RightWrist
								{
									OFFSET 19.846718 0.012767 0.000000
									CHANNELS 3 Yrotation Xrotation Zrotation
									End Site
									{
										OFFSET 14.973145 0.000001 0.000000
									}
								}
							}
						}
					}
					JOINT LeftCollar
					{
						OFFSET -2.894404 0.000001 6.791374
						CHANNELS 3 Yrotation Xrotation Zrotation
						JOINT LeftShoulder
						{
							OFFSET -13.574684 -0.000001 0.000000
							CHANNELS 3 Yrotation Xrotation Zrotation
							JOINT LeftElbow
							{
								OFFSET -23.923903 -0.000002 0.000000
								CHANNELS 3 Yrotation Xrotation Zrotation
								JOINT LeftWrist
								{
									OFFSET -19.846718 0.012763 0.000000
									CHANNELS 3 Yrotation Xrotation Zrotation
									End Site
									{
										OFFSET -14.973145 -0.000001 0.000000
									}
								}
							}
						}
					}
				}
			}
		}
	}
	JOINT RightHip
	{
		OFFSET 9.469263 0.004643 0.045487
		CHANNELS 3 Yrotation Xrotation Zrotation
		JOINT RightKnee
		{
			OFFSET 0.000000 0.002661 -40.478676
			CHANNELS 3 Yrotation Xrotation Zrotation
			JOINT RightAnkle
			{
				OFFSET 0.000000 0.049106 -35.224068
				CHANNELS 3 Yrotation Xrotation Zrotation
				JOINT RightToe
				{
					OFFSET -0.000001 12.539529 -6.151390
					CHANNELS 3 Yrotation Xrotation Zrotation
					End Site
					{
						OFFSET -0.000001 5.044994 -1.291870
					}
				}
			}
		}
	}
	JOINT LeftHip
	{
		OFFSET -9.469263 0.004641 0.045487
		CHANNELS 3 Yrotation Xrotation Zrotation
		JOINT LeftKnee
		{
			OFFSET 0.000000 0.002661 -40.478676
			CHANNELS 3 Yrotation Xrotation Zrotation
			JOINT LeftAnkle
			{
				OFFSET 0.000000 0.049106 -35.224068
				CHANNELS 3 Yrotation Xrotation Zrotation
				JOINT LeftToe
				{
					OFFSET -0.000001 12.539529 -6.151390
					CHANNELS 3 Yrotation Xrotation Zrotation
					End Site
					{
						OFFSET -0.000001 5.044994 -1.291870
					}
				}
			}
		}
	}
}
MOTION
Frames: 8
Frame Time: 0.016667
10.336120 7.161192 83.178711 -4.313781 -1.608434 -109.281005 -0.571487 -4.595367 0.794420 -0.243185 -2.041299 0.350986 -0.243185 -2.041299 0.350987 -0.181197 -1.531114 0.262399 0.462820 -12.522592 -2.555174 -0.189801 12.903505 -4.674178 -3.275906 25.287186 -9.627528 17.283027 37.128423 25.106684 -16.646902 0.773770 42.340329 25.192316 -14.552963 -17.415632 1.133820 26.412564 7.380641 -15.956749 34.225484 -26.925883 4.542489 11.358802 -38.271934 -24.109745 -32.448057 28.076466 -0.654160 -4.777771 -2.337610 1.731267 -4.179123 -6.353271 -0.921451 3.433277 1.855123 -0.033753 -0.043809 -0.024131 -0.938930 -6.066064 -0.354859 0.441477 -2.286709 2.557167 0.705137 3.842813 1.183772 0.027562 -0.014789 0.023696 
10.339079 7.167919 83.177933 -4.295653 -1.614494 -109.287145 -0.571377 -4.532917 0.821963 -0.242140 -2.013849 0.363849 -0.242140 -2.013849 0.363850 -0.180388 -1.510533 0.272062 0.474420 -12.870269 -2.556756 -0.155633 12.258469 -4.662831 -2.776180 24.800320 -9.051644 18.506701 38.880749 25.400014 -18.807274 0.613984 44.471293 22.692247 -15.945961 -16.889253 0.754178 25.862498 6.873759 -17.235981 35.527570 -27.328574 5.520118 11.538552 -40.670689 -21.250573 -34.789333 27.021647 -0.641284 -4.777160 -2.359077 1.712463 -4.149118 -6.348722 -0.898617 3.420262 1.883367 -0.035311 -0.042816 -0.024631 -0.931429 -6.061194 -0.361858 0.437458 -2.266727 2.562901 0.711291 3.833157 1.192199 0.025992 -0.016865 0.024382 
10.344849 7.176415 83.176788 -4.286012 -1.630970 -109.298285 -0.569688 -4.468192 0.853440 -0.238917 -1.984942 0.378813 -0.238916 -1.984942 0.378812 -0.177939 -1.488855 0.283306 0.478070 -13.235730 -2.553089 -0.133987 11.580272 -4.644673 -2.257606 24.266943 -8.424527 19.617253 40.560744 25.489153 -20.847336 0.639686 46.626710 19.652278 -17.345284 -15.901804 0.381342 25.397292 6.490328 -18.588508 36.668308 -27.739799 6.441003 11.560540 -42.945231 -17.730782 -37.036776 25.181878 -0.625674 -4.787056 -2.400088 1.699871 -4.123369 -6.316889 -0.881749 3.409914 1.891285 -0.034976 -0.041354 -0.025177 -0.923262 -6.064660 -0.350846 0.440544 -2.258544 2.554158 0.723996 3.835532 1.205801 0.018586 -0.021577 0.023476 
10.347499 7.183363 83.174721 -4.278057 -1.643301 -109.308080 -0.586203 -4.424948 0.888837 -0.245424 -1.966140 0.395164 -0.245424 -1.966140 0.395166 -0.182778 -1.474763 0.295553 0.509966 -13.590450 -2.547779 -0.058900 10.923038 -4.612670 -1.727231 23.995018 -7.742629 20.550791 41.893577 25.293956 -22.660454 0.977602 48.624950 16.031803 -18.549001 -14.409811 -0.026102 24.903761 5.959742 -19.854090 38.045349 -28.059047 7.152935 11.380653 -45.040614 -13.601732 -39.219018 22.657886 -0.616649 -4.792964 -2.434147 1.694830 -4.102715 -6.287241 -0.876534 3.403317 1.898061 -0.029407 -0.041802 -0.024439 -0.915946 -6.063225 -0.328081 0.438528 -2.256916 2.532061 0.738412 3.838798 1.228976 0.012911 -0.024985 0.023156 
10.347773 7.191196 83.172981 -4.274579 -1.654295 -109.321269 -0.597779 -4.390125 0.919293 -0.250348 -1.951274 0.408453 -0.250348 -1.951274 0.408456 -0.186439 -1.463624 0.305513 0.553105 -13.949552 -2.538185 0.038742 10.258125 -4.568690 -1.196739 23.838663 -7.122527 21.587542 42.919744 25.221643 -24.163739 1.616267 50.354204 11.860644 -19.607074 -12.440741 -0.300264 24.513412 5.582250 -21.210469 39.153339 -28.292162 7.536105 11.363183 -47.091637 -8.706500 -41.308585 19.501044 -0.612117 -4.789739 -2.442682 1.695411 -4.104118 -6.288608 -0.875640 3.404268 1.914040 -0.022748 -0.039917 -0.023962 -0.908850 -6.061185 -0.298154 0.437102 -2.260124 2.502395 0.747806 3.840750 1.228866 0.009863 -0.026435 0.023440 
10.345010 7.196942 83.172623 -4.279442 -1.667720 -109.339062 -0.585424 -4.338004 0.946080 -0.245547 -1.928731 0.420373 -0.245547 -1.928731 0.420374 -0.182816 -1.446718 0.314477 0.573230 -14.341761 -2.525764 0.094660 9.530999 -4.528459 -0.692942 23.616025 -6.584232 22.828780 43.914322 25.312032 -25.302197 2.273155 51.968556 7.186478 -20.470311 -10.046296 -0.557353 24.096399 5.207455 -22.493941 39.940354 -28.187456 7.748846 11.684032 -49.208002 -2.723393 -42.951416 15.302419 -0.607084 -4.786714 -2.437628 1.695890 -4.118055 -6.293809 -0.874246 3.405924 1.929486 -0.018547 -0.035103 -0.023452 -0.900274 -6.065809 -0.278794 0.429420 -2.266239 2.492651 0.758049 3.841656 1.240620 0.009124 -0.025548 0.024806 
10.343703 7.203487 83.173103 -4.294436 -1.684028 -109.358903 -0.552757 -4.281675 0.967343 -0.231515 -1.903712 0.430133 -0.231515 -1.903712 0.430137 -0.172281 -1.427948 0.321852 0.553739 -14.768647 -2.502303 0.081140 8.738406 -4.482584 -0.301643 23.408349 -6.300430 24.295039 44.798323 25.603509 -26.318727 2.691687 53.458456 2.151392 -20.933244 -7.320306 -0.856523 23.369021 4.743562 -23.745913 40.757450 -27.862251 8.042884 12.186401 -51.214217 4.376449 -43.721824 9.878428 -0.605020 -4.797279 -2.443851 1.696831 -4.126808 -6.269220 -0.870321 3.403041 1.934576 -0.017602 -0.029512 -0.023020 -0.891465 -6.082177 -0.274562 0.419583 -2.270924 2.508382 0.769366 3.840147 1.245130 0.007513 -0.022422 0.025068 
10.343877 7.213947 83.172844 -4.318501 -1.704092 -109.380739 -0.532689 -4.203885 0.997310 -0.221957 -1.869250 0.443874 -0.221957 -1.869250 0.443877 -0.165096 -1.402099 0.332199 0.529940 -15.228899 -2.470012 0.063671 7.883938 -4.421431 -0.014268 23.277671 -6.208697 25.736286 45.507805 25.673412 -27.269541 2.930614 54.916784 -3.096095 -21.011573 -4.311202 -1.265535 22.257175 4.268963 -25.247933 42.063549 -27.888086 8.447949 12.193009 -52.977208 12.382218 -43.260663 3.625278 -0.608572 -4.817273 -2.461144 1.704119 -4.136839 -6.219996 -0.869008 3.402243 1.922222 -0.016356 -0.026084 -0.023539 -0.889896 -6.108131 -0.267957 0.415613 -2.277858 2.524112 0.784893 3.843095 1.246324 0.004016 -0.021325 0.023994 
